<?xml version="1.0" encoding="utf-8"?>
<!-- Designed by Vexels.com - 2018 All Rights Reserved - https://vexels.com/terms-and-conditions/  -->
<svg version="1.1" id="Layer_1" xmlns="http://www.w3.org/2000/svg" xmlns:xlink="http://www.w3.org/1999/xlink" x="0px" y="0px"
	 viewBox="0 0 1200 1200" enable-background="new 0 0 1200 1200" xml:space="preserve">
<g>
	<g>
		<g>
			<g>
				<path fill="#232122" d="M140.745,709.618V199.978c0-14.287,11.582-25.87,25.87-25.87h867.098c14.287,0,25.87,11.582,25.87,25.87
					v509.639c0,14.287-11.582,25.87-25.87,25.87H166.615C152.328,735.487,140.745,723.905,140.745,709.618z"/>
			</g>
			<g>
				<path fill="#727172" d="M50,989.203l89.781-235.989c0-9.79,7.937-17.727,17.727-17.727h883.383
					c9.79,0,17.727,7.937,17.727,17.727L1150,989.203c-5.414,4.788-7.947,9.878-17.737,9.878H66.135
					C56.345,999.081,50,989.203,50,989.203z"/>
			</g>
			<g opacity="0.5">
				<path fill="#727172" d="M1005.321,709.078H195.007c-14.287,0-25.87-11.582-25.87-25.87V226.387
					c0-14.287,11.582-25.87,25.87-25.87h810.314c14.287,0,25.87,11.582,25.87,25.87v456.822
					C1031.19,697.496,1019.608,709.078,1005.321,709.078z"/>
			</g>
			<g>
				<path fill="#E6FDFF" d="M195.007,702.988c-10.905,0-19.778-8.872-19.778-19.779V226.387c0-10.905,8.872-19.778,19.778-19.778
					h810.314c10.906,0,19.778,8.872,19.778,19.778v456.822c0,10.907-8.872,19.779-19.778,19.779H195.007z"/>
			</g>
			<g>
				<g>
					<g>
						<path fill="#94EDE5" d="M376.277,441.625H234.081c-6.511,0-11.789-5.278-11.789-11.789V287.639
							c0-6.511,5.278-11.789,11.789-11.789h142.197c6.511,0,11.789,5.278,11.789,11.789v142.197
							C388.067,436.346,382.788,441.625,376.277,441.625z"/>
					</g>
					<g>
						<path fill="#FF473E" d="M376.277,644.768H234.081c-6.511,0-11.789-5.278-11.789-11.789V490.782
							c0-6.511,5.278-11.789,11.789-11.789h142.197c6.511,0,11.789,5.278,11.789,11.789v142.197
							C388.067,639.489,382.788,644.768,376.277,644.768z"/>
					</g>
					<g>
						<path fill="#FF473E" d="M574.356,441.625H432.159c-6.511,0-11.789-5.278-11.789-11.789V287.639
							c0-6.511,5.278-11.789,11.789-11.789h142.197c6.511,0,11.789,5.278,11.789,11.789v142.197
							C586.145,436.346,580.867,441.625,574.356,441.625z"/>
					</g>
					<g>
						<path fill="#94EDE5" d="M574.356,644.768H432.159c-6.511,0-11.789-5.278-11.789-11.789V490.782
							c0-6.511,5.278-11.789,11.789-11.789h142.197c6.511,0,11.789,5.278,11.789,11.789v142.197
							C586.145,639.489,580.867,644.768,574.356,644.768z"/>
					</g>
				</g>
				<g>
					<path fill="#FFD25C" d="M964.925,644.768H624.65c-6.511,0-11.789-5.278-11.789-11.789v-345.34
						c0-6.511,5.278-11.789,11.789-11.789h340.275c6.511,0,11.789,5.278,11.789,11.789v345.34
						C976.714,639.489,971.436,644.768,964.925,644.768z"/>
				</g>
			</g>
			<g opacity="0.5">
				<path fill="#FFFFFF" d="M1033.713,174.109H652.448c15.042,8.366,29.888,17.191,44.523,26.409h308.35
					c14.287,0,25.87,11.582,25.87,25.87v366.928c12.431,33.728,22.039,68.541,28.392,104.3V199.978
					C1059.582,185.691,1048,174.109,1033.713,174.109z"/>
			</g>
		</g>
		<g opacity="0.2">
			<path fill="#727172" d="M712.43,973.136H487.117c-8.956,0-16.216-7.26-16.216-16.216l9.137-47.794
				c0-8.956,7.26-16.216,16.216-16.216h207.039c8.956,0,16.216,7.26,16.216,16.216l9.137,47.794
				C728.645,965.876,721.385,973.136,712.43,973.136z"/>
		</g>
		<g>
			<path fill="#AFAFAF" d="M487.116,960.952c-5.412,0-9.845-4.268-10.111-9.613l9.124-47.729v-0.577
				c0-5.58,4.542-10.122,10.125-10.122h207.039c5.583,0,10.125,4.542,10.125,10.122v0.577l9.124,47.729
				c-0.266,5.345-4.699,9.613-10.111,9.613H487.116z"/>
		</g>
		<g opacity="0.2">
			<path fill="#727172" d="M1019.394,876.808H180.152c-11.06,0-18.895-10.8-15.463-21.314l32.021-98.099
				c2.184-6.691,8.425-11.219,15.463-11.219h775.2c7.039,0,13.279,4.527,15.463,11.219l32.021,98.099
				C1038.29,866.008,1030.454,876.808,1019.394,876.808z"/>
		</g>
		<g>
			<path fill="#AFAFAF" d="M180.151,864.627c-3.297,0-6.298-1.532-8.234-4.2c-1.936-2.668-2.46-5.996-1.437-9.131l32.02-98.103
				c1.371-4.197,5.257-7.017,9.673-7.017h775.199c4.415,0,8.301,2.82,9.673,7.019l32.022,98.1c1.023,3.132,0.5,6.463-1.438,9.131
				c-1.936,2.668-4.937,4.2-8.234,4.2H180.151z"/>
		</g>
	</g>
	<g opacity="0.2">
		<path fill="#727172" d="M1030.494,735.487H157.507c-9.79,0-17.727,7.937-17.727,17.727L50,989.203c0,0,6.345,9.878,16.135,9.878
			h437.603c153.183-58.092,304.395-122.6,450.194-208.755C980.768,773.812,1010.389,758.686,1030.494,735.487z"/>
	</g>
	<g opacity="0.2">
		<path fill="#727172" d="M1030.494,735.487H157.507c-9.79,0-17.727,7.937-17.727,17.727L50,989.203c0,0,6.345,9.878,16.135,9.878
			h437.603c153.183-58.092,304.395-122.6,450.194-208.755C980.768,773.812,1010.389,758.686,1030.494,735.487z"/>
	</g>
	<g opacity="0.5">
		<path fill="#FFFFFF" d="M1005.321,200.517h-308.35c148.795,93.714,274.43,230.572,334.22,392.797V226.387
			C1031.19,212.1,1019.608,200.517,1005.321,200.517z"/>
	</g>
	<g>
		<path fill="#232122" d="M1122.283,1025.891H77.717c-7.197,0-13.856-3.812-17.501-10.018L50,989.203h1100l-10.216,26.671
			C1136.14,1022.08,1129.48,1025.891,1122.283,1025.891z"/>
	</g>
	<g opacity="0.2">
		<path fill="#727172" d="M50,989.203l10.216,26.671c3.645,6.206,10.304,10.018,17.501,10.018h401.249
			c17.081-13.462,34.723-26.08,53.626-36.688H50z"/>
	</g>
</g>
</svg>
